# xmcd
#
# Track frame offsets:
#	150
#	9507
#	23985
#	40230
#	51962
#	65440
#	81750
#	97867
#	108375
#	122560
#	135362
#	149287
#	162420
#	171825
#	183480
#	195180
#	209800
#
# Disc length: 3060 seconds
#
# Revision: 0
# Processed by: cddbd v1.4PL0 Copyright (c) Steve Scherf et al.
# Submitted via: dBpowerAMP V4.0
#
DISCID=e50bf211
DTITLE=Kevin Henderson - Oldies
DYEAR=1900
DGENRE=Country
TTITLE0=Singing the Blues
TTITLE1=Licky Lips
TTITLE2=Under the Boardwalk
TTITLE3=Breakin´Up is hard to do
TTITLE4=Wonderful World
TTITLE5=In the Ghetto
TTITLE6=Dock of the Bay
TTITLE7=Needles and Pins
TTITLE8=Pretty Woman
TTITLE9=Song Sung Blue
TTITLE10=Great Pretender
TTITLE11=San Francisco
TTITLE12=Livin Doll
TTITLE13=24 Hours From Tusla
TTITLE14=The Wanderer
TTITLE15=Hey Baby
TTITLE16=The Shadows Dance
EXTD=
EXTT0=
EXTT1=
EXTT2=
EXTT3=
EXTT4=
EXTT5=
EXTT6=
EXTT7=
EXTT8=
EXTT9=
EXTT10=
EXTT11=
EXTT12=
EXTT13=
EXTT14=
EXTT15=
EXTT16=
PLAYORDER=
